<svg version="1.1"
	 xmlns="http://www.w3.org/2000/svg" xmlns:xlink="http://www.w3.org/1999/xlink" xmlns:a="http://ns.adobe.com/AdobeSVGViewerExtensions/3.0/"
	 x="0px" y="0px" width="115.948px" height="26.492px" viewBox="0 0 115.948 26.492" enable-background="new 0 0 115.948 26.492"
	 xml:space="preserve">
<defs>
</defs>
<g>
	<g>
		<path fill="#231F20" d="M31.598,10.562v-0.375h1.645V8.055c0-1.533,1.085-1.607,1.889-1.607c0.336,0,0.598,0.056,0.804,0.074
			v0.374c-0.355-0.057-0.598-0.075-0.879-0.075c-1.197,0-1.44,0.431-1.44,1.365v2.001h2.076v0.375h-2.076v9.239h-0.375v-9.239
			H31.598z"/>
		<path fill="#231F20" d="M37.021,15.069c0.038,2.58,1.066,4.582,3.797,4.582c1.983,0,3.441-1.104,3.759-3.18h0.374
			c-0.261,2.206-1.907,3.554-4.096,3.554c-2.974,0.037-4.208-2.17-4.208-5.031c0-3.199,2.038-5.031,4.208-5.031
			c2.993,0,4.32,2.469,4.208,5.106H37.021z M44.69,14.695c0.018-2.357-1.31-4.358-3.797-4.358c-2.076,0-3.74,1.664-3.871,4.358
			H44.69z"/>
		<path fill="#231F20" d="M47.309,6.447h0.374v13.354h-0.374V6.447z"/>
		<path fill="#231F20" d="M57.969,6.447h0.374v13.354h-0.374v-2.693h-0.037c-0.486,1.684-1.89,2.918-3.853,2.918
			c-2.544,0-4.096-2.113-4.096-5.013c0-2.693,1.44-5.05,4.096-5.05c2.039,0,3.404,1.178,3.853,2.917h0.037V6.447z M54.079,10.337
			c-2.637,0-3.722,2.45-3.722,4.676c0,2.469,1.234,4.639,3.722,4.639c2.469,0,3.89-2.151,3.89-4.639
			C57.969,12.039,56.417,10.337,54.079,10.337z"/>
		<path fill="#231F20" d="M61.092,15.069c0.038,2.58,1.066,4.582,3.797,4.582c1.982,0,3.441-1.104,3.759-3.18h0.374
			c-0.262,2.206-1.908,3.554-4.096,3.554c-2.974,0.037-4.209-2.17-4.209-5.031c0-3.199,2.039-5.031,4.209-5.031
			c2.992,0,4.32,2.469,4.208,5.106H61.092z M68.76,14.695c0.019-2.357-1.309-4.358-3.796-4.358c-2.076,0-3.741,1.664-3.872,4.358
			H68.76z"/>
		<path fill="#231F20" d="M71.379,10.187h0.374v2.376h0.037c0.356-1.477,1.571-2.6,3.461-2.6c2.001,0,3.422,1.234,3.422,3.46v6.377
			H78.3v-6.322c0-2.226-1.422-3.142-3.049-3.142c-2.301,0-3.498,1.888-3.498,4.022v5.442h-0.374V10.187z"/>
		<path fill="#231F20" d="M81.853,16.172v3.629h-0.374V6.447h0.374v9.258l6.639-5.519h0.543l-4.414,3.667l4.732,5.947h-0.506
			l-4.507-5.687L81.853,16.172z"/>
		<path fill="#231F20" d="M90.905,19.801h-0.374v-9.614h0.374v2.376h0.037c0.355-1.422,1.478-2.675,3.777-2.6v0.374
			c-2.637-0.131-3.814,1.926-3.814,4.022V19.801z"/>
		<path fill="#231F20" d="M96.104,13.162c0.093-1.815,1.29-3.199,3.665-3.199c1.702,0,3.124,0.655,3.18,2.75v6.115
			c0,0.729,0.692,0.655,1.217,0.6v0.373c-0.73,0.056-1.59,0.056-1.59-0.935v-1.253h-0.038c-0.374,1.233-1.833,2.412-3.815,2.412
			c-1.908,0-3.217-0.897-3.217-2.6c0-2.376,1.701-2.768,3.31-2.881c2.638-0.149,3.761-0.093,3.761-1.551
			c0-1.161-0.244-2.657-2.807-2.657c-2.001,0-3.16,1.029-3.291,2.825H96.104z M102.576,14.153h-0.038
			c-0.505,0.729-2.17,0.653-3.723,0.766c-1.515,0.113-2.936,0.449-2.936,2.507c0,1.102,0.71,2.226,2.806,2.226
			c2.506,0,3.891-1.833,3.891-3.723V14.153z"/>
		<path fill="#231F20" d="M106.241,8.336h-0.374V6.447h0.374V8.336z M106.241,19.801h-0.374v-9.614h0.374V19.801z"/>
		<path fill="#231F20" d="M115.313,13.03c0-1.927-1.271-2.693-3.105-2.693c-2.693,0-2.88,1.702-2.88,2.039
			c0,0.954,0.411,1.421,1.066,1.682c0.673,0.263,1.439,0.431,2.468,0.712c1.479,0.374,3.087,0.748,3.087,2.58
			c0,1.927-1.814,2.675-3.478,2.675c-2.525,0-3.891-1.104-3.891-3.517h0.374c0,2.132,1.291,3.143,3.517,3.143
			c1.384,0,3.104-0.617,3.104-2.264c0-1.701-1.665-1.964-3.311-2.375c-0.916-0.225-1.608-0.411-2.15-0.654
			c-0.786-0.337-1.16-0.954-1.16-1.982c0-1.066,0.86-2.413,3.254-2.413c2.133,0,3.479,0.935,3.479,3.067H115.313z"/>
	</g>
	<g>
		<path fill="#98C944" d="M8.622,17.649c0,0.524,0.113,0.729,0.505,0.729c0.131,0,0.3,0,0.524-0.037v1.478
			c-0.317,0.113-0.991,0.243-1.346,0.243c-0.86,0-1.479-0.3-1.647-1.178c-0.841,0.822-2.207,1.178-3.348,1.178
			c-1.739,0-3.31-0.934-3.31-2.824c0-2.412,1.927-2.806,3.722-3.011c1.534-0.281,2.899-0.113,2.899-1.365
			c0-1.104-1.14-1.309-2.001-1.309c-1.197,0-2.039,0.486-2.133,1.534H0.355C0.505,10.599,2.618,9.87,4.751,9.87
			c1.889,0,3.871,0.766,3.871,2.805V17.649z M6.49,14.956c-0.655,0.431-1.684,0.412-2.618,0.58c-0.917,0.15-1.74,0.486-1.74,1.609
			c0,0.953,1.215,1.233,1.963,1.233c0.936,0,2.395-0.485,2.395-1.833V14.956z"/>
		<path fill="#98C944" d="M11.726,6.447h2.133v4.936h0.037c0.58-0.934,1.796-1.514,2.881-1.514c3.048,0,4.525,2.318,4.525,5.143
			c0,2.601-1.309,5.05-4.17,5.05c-1.309,0-2.712-0.317-3.348-1.59h-0.037v1.328h-2.021V6.447z M16.496,11.553
			c-1.796,0-2.712,1.366-2.712,3.422c0,1.945,0.991,3.404,2.712,3.404c1.945,0,2.675-1.72,2.675-3.404
			C19.171,13.217,18.254,11.553,16.496,11.553z"/>
	</g>
	<rect x="26.392" y="0" fill="#231F20" width="0.52" height="26.492"/>
</g>
</svg>
