<svg version="1.1"
	 xmlns="http://www.w3.org/2000/svg" xmlns:xlink="http://www.w3.org/1999/xlink" xmlns:a="http://ns.adobe.com/AdobeSVGViewerExtensions/3.0/"
	 x="0px" y="0px" width="36px" height="36px" viewBox="0 0 36 36" enable-background="new 0 0 36 36" xml:space="preserve">
<defs>
</defs>
<g>
	<path fill="#98C944" d="M18,0C8.06,0,0,8.06,0,18c0,9.941,8.06,18,18,18c9.941,0,18-8.059,18-18C36,8.06,27.941,0,18,0L18,0z
		 M20.981,5.052c0.07-0.004,0.141-0.005,0.215,0c0.974-0.034,1.821,0.703,1.956,1.652c0.437,1.827-1.503,3.656-3.283,2.925
		C17.74,8.643,18.812,5.158,20.981,5.052L20.981,5.052z M20.104,12.994c1.382-0.087,1.623,1.521,1.192,3.15
		c-0.84,3.746-2.148,7.374-2.858,11.15c0.343,1.491,2.224-0.22,3.027-0.766c0.684-0.543,0.802,0.139,1.036,0.71
		c-1.706,1.193-3.42,2.412-5.321,3.375c-1.786,1.083-3.247-0.601-2.802-2.474c0.736-3.499,1.707-6.944,2.498-10.429
		c0.248-1.885-2.232,0.033-2.971,0.47c-0.594,0.749-0.875,0.202-1.125-0.47c1.978-1.445,3.994-3.218,6.178-4.366
		C19.403,13.12,19.784,13.015,20.104,12.994L20.104,12.994z M20.104,12.994"/>
</g>
</svg>
