<svg version="1.1"
	 xmlns="http://www.w3.org/2000/svg" xmlns:xlink="http://www.w3.org/1999/xlink" xmlns:a="http://ns.adobe.com/AdobeSVGViewerExtensions/3.0/"
	 x="0px" y="0px" width="47.416px" height="39.092px" viewBox="0 0 47.416 39.092" enable-background="new 0 0 47.416 39.092"
	 xml:space="preserve">
<defs>
</defs>
<path fill="#98C944" d="M43.005,12.866c-1.485,0-2.684,1.197-2.684,2.683c0,1.487,1.199,2.686,2.684,2.686
	c1.484,0,2.684-1.198,2.684-2.686C45.689,14.063,44.49,12.866,43.005,12.866L43.005,12.866z M4.411,12.866
	c-1.484,0-2.682,1.197-2.682,2.683c0,1.487,1.197,2.686,2.682,2.686c1.483,0,2.683-1.198,2.683-2.686
	C7.094,14.063,5.894,12.866,4.411,12.866L4.411,12.866z M35.024,7.983c-2.214,0-3.998,1.798-3.998,3.998
	c0,2.196,1.785,3.995,3.998,3.995c2.199,0,3.997-1.798,3.997-3.995C39.021,9.781,37.223,7.983,35.024,7.983L35.024,7.983z
	 M47.416,32.282h-4.555V23.9c0-1.442-0.414-2.783-1.099-3.94c0.4-0.114,0.814-0.199,1.243-0.199c2.426,0,4.411,1.984,4.411,4.41
	V32.282z M12.394,7.983c-2.201,0-3.999,1.798-3.999,3.998c0,2.196,1.798,3.995,3.999,3.995c2.197,0,3.995-1.798,3.995-3.995
	C16.389,9.781,14.592,7.983,12.394,7.983L12.394,7.983z M4.411,19.761c0.442,0,0.845,0.085,1.242,0.199
	c-0.686,1.157-1.1,2.499-1.1,3.94v8.381H0v-8.11C0,21.746,1.984,19.761,4.411,19.761L4.411,19.761z M23.699,0
	c-3.253,0-5.895,2.658-5.895,5.913c0,3.254,2.642,5.911,5.895,5.911c3.258,0,5.913-2.657,5.913-5.911
	C29.612,2.658,26.956,0,23.699,0L23.699,0z M41.406,35.394h-6.968v-12.75c0-1.742-0.47-3.384-1.213-4.841
	c0.571-0.169,1.171-0.284,1.8-0.284c3.512,0,6.382,2.855,6.382,6.381V35.394z M12.977,22.645v12.75H6.013V23.9
	c0-3.526,2.87-6.381,6.396-6.381c0.624,0,1.213,0.115,1.782,0.284C13.451,19.261,12.977,20.903,12.977,22.645L12.977,22.645z
	 M14.449,39.092h18.518V22.645c0-5.098-4.155-9.252-9.269-9.252c-5.109,0-9.25,4.155-9.25,9.252V39.092z M14.449,39.092"/>
</svg>
