<svg version="1.1"
	 xmlns="http://www.w3.org/2000/svg" xmlns:xlink="http://www.w3.org/1999/xlink" xmlns:a="http://ns.adobe.com/AdobeSVGViewerExtensions/3.0/"
	 x="0px" y="0px" width="41.605px" height="39.005px" viewBox="0 0 41.605 39.005" enable-background="new 0 0 41.605 39.005"
	 xml:space="preserve">
<defs>
</defs>
<g id="XMLID_1_">
	<path fill="#94CA72" d="M22.104,0c10.75,0,19.501,8.746,19.501,19.502c0,10.756-8.751,19.503-19.501,19.503v-2.596
		c9.322,0,16.906-7.584,16.906-16.907c0-9.322-7.584-16.907-16.906-16.907V0z"/>
	<path fill="#94CA72" d="M22.104,6.619c7.116,0,12.883,5.767,12.883,12.883c0,7.116-5.767,12.89-12.883,12.89V6.619z"/>
	<path fill="#98C944" d="M19.507,36.409v2.596C8.751,39.005,0,30.258,0,19.502C0,8.746,8.751,0,19.507,0v2.595
		c-9.328,0-16.912,7.585-16.912,16.907C2.595,28.825,10.179,36.409,19.507,36.409z"/>
	<path fill="#98C944" d="M19.507,6.619v25.772c-7.122,0-12.889-5.773-12.889-12.89C6.618,12.386,12.386,6.619,19.507,6.619z"/>
</g>
</svg>
